<?xml version="1.0" encoding="UTF-8"?>
<svg width="152px" height="38px" viewBox="0 0 152 38" version="1.1" xmlns="http://www.w3.org/2000/svg" xmlns:xlink="http://www.w3.org/1999/xlink">
    <!-- Generator: Sketch 52.5 (67469) - http://www.bohemiancoding.com/sketch -->
    <title>分组 4</title>
    <desc>Created with Sketch.</desc>
    <g id="Page-1" stroke="none" stroke-width="1" fill="none" fill-rule="evenodd">
        <g id="登录" transform="translate(-643.000000, -185.000000)">
            <g id="分组-4" transform="translate(643.000000, 185.000000)">
                <polygon id="路径" fill="#1A1A1A" points="63.4170096 15.9698217 58.7876543 15.9418168 58.7876543 8.74456483 55.1783265 8.74456483 55.1783265 7.73638946 61.1154092 1.32327389 63.4170096 1.32327389"></polygon>
                <g id="分组" transform="translate(57.009145, 22.377686)" fill="#1A1A1A">
                    <rect id="矩形" x="12.1078128" y="0.216985893" width="5.02167353" height="3.63451371"></rect>
                    <polygon id="路径" points="5.04957171 14.4838084 0.111592745 14.4838084 12.135711 2.71232366 17.1573845 2.71232366"></polygon>
                    <polygon id="路径" points="24.1040329 14.4838084 29.1257064 14.4838084 17.1294864 2.71232366 12.0799146 2.71232366"></polygon>
                </g>
                <rect id="矩形" fill="#1A1A1A" x="68.909465" y="0.407864655" width="5.49245542" height="10.9849108"></rect>
                <rect id="矩形" fill="#1A1A1A" x="105.525834" y="4.98491084" width="4.57704618" height="32.0393233"></rect>
                <rect id="矩形" fill="#1A1A1A" x="114.679927" y="7.73113855" width="4.57704618" height="20.8157293"></rect>
                <polygon id="矩形" fill="#1A1A1A" points="95.5409236 0.238683128 100.11797 0.238683128 100.11797 20.8235135 95.5409236 20.8235135"></polygon>
                <polygon id="矩形" fill="#1A1A1A" transform="translate(88.438223, 6.029793) rotate(-90.000020) translate(-88.438223, -6.029793) " points="86.5395969 -10.0059428 90.33685 -10.0059428 90.3368499 22.0655297 86.5395967 22.0655298"></polygon>
                <polygon id="矩形" fill="#1A1A1A" transform="translate(77.610844, 13.398627) rotate(-90.000000) translate(-77.610844, -13.398627) " points="75.2122171 4.69617709 80.0094703 4.69617709 80.0094703 22.101076 75.2122171 22.101076"></polygon>
                <polygon id="矩形" fill="#1A1A1A" transform="translate(112.392703, 5.898626) rotate(-90.000021) translate(-112.392703, -5.898626) " points="110.494074 -0.960330357 114.291327 -0.960330374 114.291327 12.7575829 110.494074 12.7575829"></polygon>
                <rect id="矩形-copy-3" fill="#1A1A1A" x="137.525834" y="4.98491084" width="4.57704618" height="32.0393233"></rect>
                <rect id="矩形-copy-2" fill="#1A1A1A" x="146.679927" y="7.73113855" width="4.57704618" height="20.8157293"></rect>
                <polygon id="矩形-copy" fill="#1A1A1A" transform="translate(144.392703, 5.898626) rotate(-90.000021) translate(-144.392703, -5.898626) " points="142.494074 -0.960330357 146.291327 -0.960330374 146.291327 12.7575829 142.494074 12.7575829"></polygon>
                <polygon id="矩形" fill="#1A1A1A" transform="translate(97.582172, 13.052039) rotate(-90.000000) translate(-97.582172, -13.052039) " points="95.6835451 6.15804347 99.4807982 6.15804347 99.4807982 19.9460355 95.6835451 19.9460355"></polygon>
                <polygon id="矩形" fill="#1A1A1A" transform="translate(93.127677, 18.922902) rotate(-90.000019) translate(-93.127677, -18.922902) " points="91.2290506 16.5243945 95.0263038 16.5243945 95.0263038 21.3214096 91.2290506 21.3214096"></polygon>
                <polygon id="矩形" fill="#1A1A1A" transform="translate(102.028100, 18.941796) rotate(-90.000000) translate(-102.028100, -18.941796) " points="100.129474 16.4884655 103.926727 16.4884655 103.926727 21.3951267 100.129474 21.3951267"></polygon>
                <polygon id="矩形" fill="#1A1A1A" points="58.816629 16.8852309 63.4170096 16.8852309 63.4170096 27.8701417 58.816629 27.8701417"></polygon>
                <polygon id="矩形" fill="#1A1A1A" points="80.8097851 17.0061864 86.3022405 17.0061864 86.3022405 30.6163695 80.8097851 30.6163695"></polygon>
                <polygon id="矩形" fill="#1A1A1A" transform="translate(72.131835, 18.852581) rotate(-90.000041) translate(-72.131835, -18.852581) " points="70.1653475 10.0458516 74.098323 10.0458517 73.9626004 27.6593109 70.1653473 27.6593109"></polygon>
                <g id="分组" transform="translate(95.540924, 18.631459)" fill="#1A1A1A">
                    <g transform="translate(2.402949, 0.000000)" id="路径">
                        <polygon points="2.19269119 3.90043936 0.0901105967 2.01655368 0.0901105967 0.159201606 2.19269119 2.04308728"></polygon>
                        <polygon points="2.19269119 6.28846345 0.0901105967 4.40457778 0.0901105967 2.5472257 2.19269119 4.43111138"></polygon>
                        <polygon points="2.19269119 8.67648754 0.0901105967 6.79260187 0.0901105967 4.9352498 2.19269119 6.81913547"></polygon>
                        <polygon points="2.19269119 11.0645116 0.0901105967 9.20715957 0.0901105967 7.34980749 2.19269119 9.20715957"></polygon>
                        <polygon points="2.19269119 13.4790693 0.0901105967 11.5951837 0.0901105967 9.73783159 2.19269119 11.6217173"></polygon>
                        <polygon points="2.19269119 15.8670934 0.0901105967 13.9832078 0.0901105967 12.1258557 2.19269119 14.0097414"></polygon>
                        <polygon points="2.19269119 18.2551175 0.0901105967 16.3712319 0.0901105967 14.5138798 2.19269119 16.3977655"></polygon>
                    </g>
                    <g id="路径">
                        <polygon points="0.0901105967 3.90043936 2.19269119 2.01655368 2.19269119 0.159201606 0.0901105967 2.04308728"></polygon>
                        <polygon points="0.0901105967 6.28846345 2.19269119 4.40457778 2.19269119 2.5472257 0.0901105967 4.43111138"></polygon>
                        <polygon points="0.0901105967 8.67648754 2.19269119 6.79260187 2.19269119 4.9352498 0.0901105967 6.81913547"></polygon>
                        <polygon points="0.0901105967 11.0645116 2.19269119 9.20715957 2.19269119 7.34980749 0.0901105967 9.20715957"></polygon>
                        <polygon points="0.0901105967 13.4790693 2.19269119 11.5951837 2.19269119 9.73783159 0.0901105967 11.6217173"></polygon>
                        <polygon points="0.0901105967 15.8670934 2.19269119 13.9832078 2.19269119 12.1258557 0.0901105967 14.0097414"></polygon>
                        <polygon points="0.0901105967 18.2551175 2.19269119 16.3712319 2.19269119 14.5138798 0.0901105967 16.3977655"></polygon>
                    </g>
                </g>
                <polygon id="矩形" fill="#1A1A1A" points="127.411065 0.238683128 131.988112 0.238683128 131.988112 20.8065922 127.411065 20.8065922"></polygon>
                <polygon id="矩形" fill="#1A1A1A" transform="translate(129.919865, 6.037564) rotate(-90.000000) translate(-129.919865, -6.037564) " points="128.021238 -0.842726619 131.818491 -0.842726619 131.818491 12.9178539 128.021238 12.9178539"></polygon>
                <polygon id="矩形" fill="#1A1A1A" transform="translate(129.908188, 13.059797) rotate(-90.000000) translate(-129.908188, -13.059797) " points="128.009561 6.16580071 131.806814 6.16580071 131.806814 19.9537928 128.009561 19.9537928"></polygon>
                <polygon id="矩形" fill="#1A1A1A" transform="translate(125.451846, 18.942512) rotate(-90.000019) translate(-125.451846, -18.942512) " points="123.553219 16.5302987 127.350472 16.5302987 127.350472 21.3547254 123.553219 21.3547254"></polygon>
                <polygon id="矩形" fill="#1A1A1A" transform="translate(134.354116, 18.922430) rotate(-90.000000) translate(-134.354116, -18.922430) " points="132.455489 16.4690995 136.252743 16.4690995 136.252743 21.3757607 132.455489 21.3757607"></polygon>
                <g id="分组" transform="translate(127.411065, 18.631459)" fill="#1A1A1A">
                    <g transform="translate(2.402949, 0.000000)" id="路径">
                        <polygon points="2.19269119 3.90043936 0.0901105967 2.01655368 0.0901105967 0.159201606 2.19269119 2.04308728"></polygon>
                        <polygon points="2.19269119 6.28846345 0.0901105967 4.40457778 0.0901105967 2.5472257 2.19269119 4.43111138"></polygon>
                        <polygon points="2.19269119 8.67648754 0.0901105967 6.79260187 0.0901105967 4.9352498 2.19269119 6.81913547"></polygon>
                        <polygon points="2.19269119 11.0645116 0.0901105967 9.20715957 0.0901105967 7.34980749 2.19269119 9.20715957"></polygon>
                        <polygon points="2.19269119 13.4790693 0.0901105967 11.5951837 0.0901105967 9.73783159 2.19269119 11.6217173"></polygon>
                        <polygon points="2.19269119 15.8670934 0.0901105967 13.9832078 0.0901105967 12.1258557 2.19269119 14.0097414"></polygon>
                        <polygon points="2.19269119 18.2551175 0.0901105967 16.3712319 0.0901105967 14.5138798 2.19269119 16.3977655"></polygon>
                    </g>
                    <g id="路径">
                        <polygon points="0.0901105967 3.90043936 2.19269119 2.01655368 2.19269119 0.159201606 0.0901105967 2.04308728"></polygon>
                        <polygon points="0.0901105967 6.28846345 2.19269119 4.40457778 2.19269119 2.5472257 0.0901105967 4.43111138"></polygon>
                        <polygon points="0.0901105967 8.67648754 2.19269119 6.79260187 2.19269119 4.9352498 0.0901105967 6.81913547"></polygon>
                        <polygon points="0.0901105967 11.0645116 2.19269119 9.20715957 2.19269119 7.34980749 0.0901105967 9.20715957"></polygon>
                        <polygon points="0.0901105967 13.4790693 2.19269119 11.5951837 2.19269119 9.73783159 0.0901105967 11.6217173"></polygon>
                        <polygon points="0.0901105967 15.8670934 2.19269119 13.9832078 2.19269119 12.1258557 0.0901105967 14.0097414"></polygon>
                        <polygon points="0.0901105967 18.2551175 2.19269119 16.3712319 2.19269119 14.5138798 0.0901105967 16.3977655"></polygon>
                    </g>
                </g>
                <g id="分组-16">
                    <ellipse id="椭圆形" fill="#1A1A1A" cx="22.4479809" cy="22.1798756" rx="8.18780826" ry="8.04903443"></ellipse>
                    <path d="M14.0451603,16.28232 L11.0286104,13.3759247 C10.4913585,12.8582915 9.64091633,12.8582915 9.10366443,13.3759247 L1.03681245,21.1482015 C0.485106811,21.6797606 0.468774848,22.5579202 1.00033399,23.1096258 C1.0122663,23.1220104 1.02442789,23.134172 1.03681245,23.1461043 L9.10366443,30.9183811 C9.64091633,31.4360143 10.4913585,31.4360143 11.0286104,30.9183811 L14.0451603,28.0119857 C12.8330076,26.3617081 12.0951756,24.3305971 12.0951756,22.1471529 C12.0951756,19.9637086 12.8330076,17.9325977 14.0451603,16.28232 Z" id="路径" fill="#DBAA63"></path>
                    <path d="M30.9062885,28.0119857 L33.7688428,30.7700088 C34.392055,31.3704633 35.3785679,31.3704633 36.0017801,30.7700088 L43.7487464,23.3059365 C44.3887249,22.6893279 44.40767,21.6706628 43.7910614,21.0306842 C43.7772199,21.0163182 43.7631125,21.0022107 43.7487464,20.9883692 L36.0017801,13.524297 C35.3785679,12.9238424 34.392055,12.9238424 33.7688428,13.524297 L30.9062885,16.28232 C32.1184412,17.9325977 32.8562733,19.9637086 32.8562733,22.1471529 C32.8562733,24.3305971 32.1184412,26.3617081 30.9062885,28.0119857 Z" id="路径" fill="#DBAA63"></path>
                    <path d="M32.4052223,35.9672773 L12.3283323,35.9672773 C11.8622617,35.9672773 11.48582,35.463987 11.48582,34.8408657 L11.48582,33.9301499 C11.48582,33.3070286 11.8622617,32.8037383 12.3283323,32.8037383 L32.3872965,32.8037383 C32.8533672,32.8037383 33.2298089,33.3070286 33.2298089,33.9301499 L33.2298089,34.8408657 C33.2298089,35.463987 32.8533672,35.9672773 32.4052223,35.9672773 Z" id="路径" fill="#1A1A1A"></path>
                    <path d="M28.5309034,13.8550782 L31.2059821,11.1328252 C31.8211828,10.5067755 31.8211828,9.50320513 31.2059821,8.87715545 L23.6303843,1.1679638 C23.0074983,0.534093356 21.9886959,0.525188704 21.3548254,1.1480747 C21.3481379,1.15464633 21.341508,1.16127628 21.3349363,1.1679638 L13.7593385,8.87715545 C13.1441378,9.50320513 13.1441378,10.5067755 13.7593385,11.1328252 L16.4344172,13.8550782 C18.1330727,12.5979067 20.2177863,11.8645566 22.4826603,11.8645566 C24.7475343,11.8645566 26.8322479,12.5979067 28.5309034,13.8550782 Z" id="路径" fill="#DBAA63"></path>
                </g>
            </g>
        </g>
    </g>
</svg>